<svg width="24" height="24" viewBox="0 0 24 24" fill="none" xmlns="http://www.w3.org/2000/svg">
<g clip-path="url(#clip0_7_2620)">
<mask id="mask0_7_2620" style="mask-type:luminance" maskUnits="userSpaceOnUse" x="0" y="0" width="24" height="24">
<path d="M24 0H0V24H24V0Z" fill="white"/>
</mask>
<g mask="url(#mask0_7_2620)">
<path d="M20.0002 19.2999H14.1002C14.0002 18.9999 13.8002 18.6999 13.6002 18.4999C13.4002 18.2999 13.1002 18.0999 12.8002 17.9999V16.7999C16.4002 16.3999 19.3002 13.2999 19.3002 9.5999C19.3002 5.5999 16.1002 2.3999 12.1002 2.3999C8.1002 2.3999 4.9002 5.6999 4.9002 9.5999C4.9002 13.2999 7.8002 16.3999 11.4002 16.7999V17.9999C11.1002 18.0999 10.8002 18.2999 10.6002 18.4999C10.4002 18.6999 10.2002 18.9999 10.1002 19.2999H4.0002C3.6002 19.2999 3.2002 19.5999 3.2002 20.0999C3.2002 20.5999 3.5002 20.8999 4.0002 20.8999H9.9002C10.0002 21.1999 10.2002 21.4999 10.4002 21.6999C10.8002 22.0999 11.4002 22.3999 12.0002 22.3999C12.6002 22.3999 13.2002 22.1999 13.6002 21.6999C13.8002 21.4999 14.0002 21.1999 14.1002 20.8999H20.0002C20.4002 20.8999 20.8002 20.5999 20.8002 20.0999C20.8002 19.5999 20.4002 19.2999 20.0002 19.2999ZM12.0002 3.7999C12.3002 3.7999 12.5002 3.8999 12.7002 4.1999C13.5002 5.5999 14.0002 7.1999 14.1002 8.7999H9.9002C10.0002 7.1999 10.5002 5.5999 11.3002 4.1999C11.5002 3.8999 11.7002 3.7999 12.0002 3.7999ZM14.1002 10.2999C14.0002 11.8999 13.5002 13.4999 12.7002 14.8999C12.4002 15.3999 11.6002 15.3999 11.3002 14.8999C10.5002 13.4999 10.0002 11.8999 9.9002 10.2999H14.1002ZM14.4002 14.6999C15.1002 13.2999 15.5002 11.7999 15.6002 10.1999H17.7002C17.4002 12.1999 16.2002 13.8999 14.4002 14.6999ZM17.7002 8.7999H15.6002C15.5002 7.2999 15.1002 5.6999 14.4002 4.2999C16.2002 5.0999 17.4002 6.7999 17.7002 8.7999ZM9.6002 4.2999C8.9002 5.6999 8.5002 7.1999 8.4002 8.7999H6.3002C6.6002 6.7999 7.8002 5.0999 9.6002 4.2999ZM6.3002 10.2999H8.4002C8.5002 11.7999 8.9002 13.3999 9.6002 14.7999C7.8002 13.8999 6.6002 12.1999 6.3002 10.2999ZM12.5002 20.4999C12.2002 20.7999 11.7002 20.7999 11.4002 20.4999C11.1002 20.1999 11.1002 19.6999 11.4002 19.3999C11.5002 19.2999 11.7002 19.1999 11.9002 19.1999C12.1002 19.1999 12.3002 19.2999 12.4002 19.3999C12.8002 19.7999 12.8002 20.1999 12.5002 20.4999Z" fill="white"/>
</g>
</g>
<defs>
<clipPath id="clip0_7_2620">
<rect width="24" height="24" fill="white"/>
</clipPath>
</defs>
</svg>
